{
    "asset" : {
        "generator" : "Khronos glTF Blender I/O v3.2.40",
        "version" : "2.0"
    },
    "scene" : 0,
    "scenes" : [
        {
            "name" : "Scene",
            "nodes" : [
                0,
                1
            ]
        }
    ],
    "nodes" : [
        {
            "mesh" : 0,
            "name" : "Walls",
            "scale" : [
                1.5240000486373901,
                1.3716000318527222,
                1.5240000486373901
            ],
            "translation" : [
                1.9688286781311035,
                1.7738900184631348,
                0
            ]
        },
        {
            "mesh" : 1,
            "name" : "Floor",
            "scale" : [
                1.5240000486373901,
                1.3716000318527222,
                1.5240000486373901
            ],
            "translation" : [
                1.9688286781311035,
                1.7738900184631348,
                0
            ]
        }
    ],
    "materials" : [
        {
            "doubleSided" : true,
            "name" : "Material",
            "pbrMetallicRoughness" : {
                "baseColorFactor" : [
                    0.800000011920929,
                    0.800000011920929,
                    0.800000011920929,
                    1
                ],
                "metallicFactor" : 0,
                "roughnessFactor" : 0.4000000059604645
            }
        }
    ],
    "meshes" : [
        {
            "name" : "Cube",
            "primitives" : [
                {
                    "attributes" : {
                        "POSITION" : 0,
                        "NORMAL" : 1,
                        "TEXCOORD_0" : 2
                    },
                    "indices" : 3,
                    "material" : 0
                }
            ]
        },
        {
            "name" : "Cube.001",
            "primitives" : [
                {
                    "attributes" : {
                        "POSITION" : 4,
                        "NORMAL" : 5,
                        "TEXCOORD_0" : 6
                    },
                    "indices" : 7,
                    "material" : 0
                }
            ]
        }
    ],
    "accessors" : [
        {
            "bufferView" : 0,
            "componentType" : 5126,
            "count" : 16,
            "max" : [
                1,
                1,
                1.2999999523162842
            ],
            "min" : [
                -1.2999999523162842,
                -1.3022880554199219,
                -1
            ],
            "type" : "VEC3"
        },
        {
            "bufferView" : 1,
            "componentType" : 5126,
            "count" : 16,
            "type" : "VEC3"
        },
        {
            "bufferView" : 2,
            "componentType" : 5126,
            "count" : 16,
            "type" : "VEC2"
        },
        {
            "bufferView" : 3,
            "componentType" : 5123,
            "count" : 60,
            "type" : "SCALAR"
        },
        {
            "bufferView" : 4,
            "componentType" : 5126,
            "count" : 8,
            "max" : [
                1,
                -1,
                1
            ],
            "min" : [
                -1,
                -1.2999999523162842,
                -1
            ],
            "type" : "VEC3"
        },
        {
            "bufferView" : 5,
            "componentType" : 5126,
            "count" : 8,
            "type" : "VEC3"
        },
        {
            "bufferView" : 6,
            "componentType" : 5126,
            "count" : 8,
            "type" : "VEC2"
        },
        {
            "bufferView" : 7,
            "componentType" : 5123,
            "count" : 36,
            "type" : "SCALAR"
        }
    ],
    "bufferViews" : [
        {
            "buffer" : 0,
            "byteLength" : 192,
            "byteOffset" : 0
        },
        {
            "buffer" : 0,
            "byteLength" : 192,
            "byteOffset" : 192
        },
        {
            "buffer" : 0,
            "byteLength" : 128,
            "byteOffset" : 384
        },
        {
            "buffer" : 0,
            "byteLength" : 120,
            "byteOffset" : 512
        },
        {
            "buffer" : 0,
            "byteLength" : 96,
            "byteOffset" : 632
        },
        {
            "buffer" : 0,
            "byteLength" : 96,
            "byteOffset" : 728
        },
        {
            "buffer" : 0,
            "byteLength" : 64,
            "byteOffset" : 824
        },
        {
            "buffer" : 0,
            "byteLength" : 72,
            "byteOffset" : 888
        }
    ],
    "buffers" : [
        {
            "byteLength" : 960,
            "uri" : "data:application/octet-stream;base64,"
        }
    ]
}
